<svg width="32" height="32" viewBox="0 0 32 32" fill="none" xmlns="http://www.w3.org/2000/svg">
<g id="fluent:weather-drizzle-24-regular">
<path id="Vector" d="M16 4.00133C20.224 4.00133 22.6213 6.79733 22.9693 10.1747H23.076C23.7218 10.1736 24.3615 10.2998 24.9585 10.5461C25.5555 10.7923 26.0982 11.1538 26.5554 11.6098C27.0127 12.0658 27.3756 12.6075 27.6235 13.2038C27.8714 13.8002 27.9993 14.4395 28 15.0853C27.9991 15.7309 27.8711 16.37 27.6232 16.9661C27.3754 17.5622 27.0125 18.1036 26.5554 18.5595C26.0983 19.0154 25.5559 19.3768 24.9591 19.623C24.3623 19.8693 23.7229 19.9955 23.0773 19.9947H22.3013L22.2973 20H21.9453C21.9178 20.0785 21.8807 20.1533 21.8347 20.2227L20.5013 22.2227C20.3529 22.4401 20.1246 22.5903 19.8662 22.6405C19.6077 22.6907 19.3398 22.637 19.1207 22.4909C18.9016 22.3448 18.749 22.1183 18.6959 21.8604C18.6429 21.6024 18.6937 21.334 18.8373 21.1133L19.5827 19.9947H17.1427L17.14 20H16.6107C16.5831 20.0781 16.546 20.1524 16.5 20.2213L15.1667 22.2213C15.0958 22.3348 15.0029 22.4329 14.8934 22.5099C14.784 22.5868 14.6602 22.641 14.5294 22.6692C14.3987 22.6975 14.2635 22.6992 14.1321 22.6742C14.0006 22.6493 13.8755 22.5983 13.7642 22.5241C13.6528 22.4499 13.5575 22.3542 13.4838 22.2425C13.4101 22.1309 13.3595 22.0056 13.3352 21.874C13.3108 21.7425 13.313 21.6073 13.3418 21.4767C13.3706 21.346 13.4253 21.2225 13.5027 21.1133L14.2493 19.9947H11.9813L11.98 20H11.2773C11.2494 20.0786 11.2118 20.1534 11.1653 20.2227L9.832 22.2227C9.68354 22.4401 9.4553 22.5903 9.19682 22.6405C8.93834 22.6907 8.67049 22.637 8.4514 22.4909C8.23231 22.3448 8.07967 22.1183 8.02661 21.8604C7.97355 21.6024 8.02436 21.334 8.168 21.1133L8.91467 19.9947C7.61225 19.9943 6.3632 19.4771 5.44175 18.5567C4.5203 17.6362 4.00177 16.3878 4 15.0853C4.00052 14.4394 4.12833 13.7999 4.37612 13.2034C4.62391 12.6069 4.98682 12.0651 5.44411 11.609C5.90139 11.1528 6.4441 10.7912 7.0412 10.5449C7.6383 10.2985 8.27809 10.1723 8.924 10.1733H9.03067C9.38 6.77333 11.7747 4 16 4V4.00133ZM16 5.99867C13.2387 5.99867 10.8307 8.176 10.8307 11.184C10.8307 11.66 10.4053 12.0347 9.91867 12.0347H8.99867C7.31733 12.0347 5.95333 13.3693 5.95333 15.016C5.95333 16.6627 7.31733 17.9987 8.99867 17.9987H23C24.6813 17.9987 26.0453 16.6627 26.0453 15.016C26.0453 13.3693 24.6813 12.0347 23 12.0347H22.08C21.5933 12.0347 21.168 11.6613 21.168 11.184C21.168 8.13733 18.76 5.99733 15.9987 5.99733L16 5.99867ZM9.50133 25.112C9.42677 25.2212 9.37461 25.3442 9.34788 25.4737C9.32115 25.6032 9.32037 25.7367 9.34559 25.8665C9.37081 25.9964 9.42154 26.1199 9.49482 26.23C9.56811 26.3401 9.6625 26.4345 9.77253 26.5079C9.88257 26.5812 10.0061 26.632 10.1359 26.6573C10.2657 26.6826 10.3992 26.682 10.5287 26.6553C10.6583 26.6287 10.7812 26.5766 10.8905 26.5021C10.9998 26.4276 11.0932 26.3322 11.1653 26.2213L12.4987 24.2213C12.5732 24.1121 12.6254 23.9892 12.6521 23.8597C12.6789 23.7301 12.6796 23.5966 12.6544 23.4668C12.6292 23.337 12.5785 23.2134 12.5052 23.1034C12.4319 22.9933 12.3375 22.8988 12.2275 22.8255C12.1174 22.7521 11.9939 22.7013 11.8641 22.676C11.7343 22.6507 11.6008 22.6514 11.4713 22.678C11.3417 22.7047 11.2188 22.7568 11.1095 22.8312C11.0002 22.9057 10.9068 23.0012 10.8347 23.112L9.50133 25.112ZM15.112 26.4987C14.8914 26.3515 14.7382 26.1228 14.6862 25.8628C14.6342 25.6027 14.6876 25.3327 14.8347 25.112L16.168 23.112C16.2401 23.0012 16.3336 22.9057 16.4428 22.8312C16.5521 22.7568 16.6751 22.7047 16.8046 22.678C16.9341 22.6514 17.0677 22.6507 17.1975 22.676C17.3273 22.7013 17.4508 22.7521 17.5608 22.8255C17.6708 22.8988 17.7652 22.9933 17.8385 23.1034C17.9118 23.2134 17.9625 23.337 17.9877 23.4668C18.013 23.5966 18.0122 23.7301 17.9855 23.8597C17.9587 23.9892 17.9066 24.1121 17.832 24.2213L16.4987 26.2213C16.3515 26.442 16.1228 26.5952 15.8628 26.6472C15.6027 26.6992 15.3327 26.6458 15.112 26.4987Z" fill="#4791EB"/>
</g>
</svg>
