<svg width="255" height="251" viewBox="0 0 255 251" fill="none" xmlns="http://www.w3.org/2000/svg">
<path d="M84.7848 62.2762C85.1956 62.9597 88.7119 62.2773 88.7119 62.2773L90.971 64.0519C91.1641 63.0669 90.9732 62.0454 90.4375 61.1968C89.5178 59.5834 86.2677 60.429 86.2677 60.429C86.2677 60.429 84.3738 61.5796 84.7848 62.2762Z" fill="#FFCCB3"/>
<path d="M137.931 72.6643C137.931 72.6643 137.595 92.6658 122.86 90.8668C108.126 89.0679 87.4619 70.9309 87.4619 70.9309L91.4464 66.1616C91.4464 66.1616 117.094 76.2407 121.918 79.9521C127.938 69.9803 127.31 55.6247 127.31 55.6247L137.931 72.6643Z" fill="#A7B7C9"/>
<path d="M87.6654 70.2707C90.237 70.0011 92.6962 69.0745 94.807 67.5799C94.9776 66.6059 83.1825 58.1394 81.5827 57.0418C79.9829 55.9442 73.9256 58.554 73.9256 58.554C71.2379 59.8827 85.0457 70.2089 87.6654 70.2707Z" fill="#001E6E"/>
<path opacity="0.6" d="M122.419 81.105L126.578 90.8867L139.508 83.8506L137.212 60.8398L127.158 69.228L122.419 81.105Z" fill="url(#paint0_radial_0_4569)"/>
<path d="M90.1952 69.8239C89.3801 70.0989 88.5272 70.2452 87.6672 70.2575C85.0472 70.1825 71.2401 59.8825 73.9401 58.5273C73.9401 58.5273 78.7293 56.475 80.9108 56.7973C79.5489 57.1783 78.2144 57.6512 76.9164 58.2129C74.3575 59.4596 86.7135 68.8415 90.1952 69.8239Z" fill="#001653"/>
<path d="M88.4786 64.3798C88.4945 64.982 92.0896 66.2889 92.8907 66.8835C93.6918 67.4782 89.0157 71.3355 87.7761 71.4861C86.5365 71.6367 81.9515 70.0153 80.638 67.862C79.9991 66.9332 79.5287 65.899 79.2483 64.8068C82.5329 63.7768 88.3839 63.7665 88.4786 64.3798Z" fill="#FFCCB3"/>
<path d="M5.89896 211.892C3.12197 188.514 22.3702 166.913 48.8338 163.765C75.2975 160.616 99.0974 177.059 101.888 200.45C104.678 223.84 85.4166 245.429 58.9398 248.578C32.4631 251.727 8.68902 235.27 5.89896 211.892ZM49.4712 169.067C26.3222 171.827 9.46307 190.705 11.901 211.158C14.339 231.61 35.1527 246.009 58.3145 243.236C81.4763 240.463 98.3223 221.585 95.8847 201.145C93.4471 180.706 72.633 166.294 49.4709 169.054L49.4712 169.067Z" fill="black"/>
<path d="M16.6546 210.613C14.5016 192.525 29.4518 175.714 49.9774 173.246C70.5031 170.779 88.9838 183.576 91.1382 201.716C93.2926 219.857 78.3561 236.694 57.8153 239.083C37.2745 241.473 18.8221 228.754 16.6546 210.613ZM50.1297 174.552C30.4254 176.894 16.0848 192.994 18.1541 210.39C20.2234 227.787 37.9453 240.106 57.715 237.763C77.4847 235.42 91.7727 219.308 89.6903 201.912C87.6079 184.516 69.8478 172.237 50.1297 174.552Z" fill="#968B89"/>
<path d="M43.4752 233.959L43.3968 233.961C43.2378 233.904 43.1079 233.786 43.0352 233.633C42.9626 233.481 42.953 233.305 43.0087 233.146C43.0845 232.966 43.2246 232.821 43.4014 232.739C43.5783 232.657 43.7795 232.643 43.9656 232.701C48.2614 233.865 52.7408 234.192 57.1597 233.663C74.2915 231.56 86.7645 217.606 84.9639 202.456C84.4388 198.042 82.7366 193.851 80.036 190.323L80.0339 190.244C79.994 190.171 79.9693 190.09 79.9611 190.006C79.9529 189.923 79.9614 189.839 79.9861 189.759C80.0108 189.679 80.0512 189.605 80.105 189.541C80.1588 189.477 80.2248 189.424 80.2992 189.386C80.4642 189.286 80.6593 189.248 80.8496 189.279C81.0399 189.31 81.213 189.408 81.3378 189.555C84.168 193.253 85.9523 197.645 86.5037 202.271C88.3887 218.139 75.3188 232.791 57.3633 234.929C52.7152 235.52 47.9963 235.19 43.4752 233.959Z" fill="#968B89"/>
<path d="M27.9218 190.257L27.8281 190.181C27.7689 190.127 27.7212 190.061 27.6879 189.987C27.6546 189.914 27.6363 189.835 27.6342 189.754C27.6321 189.673 27.6461 189.593 27.6755 189.518C27.7049 189.443 27.7491 189.375 27.8053 189.317C33.5976 182.627 41.6986 178.371 50.49 177.399L50.6601 177.394C50.8033 177.431 50.9306 177.514 51.0227 177.629C51.1149 177.745 51.1668 177.888 51.1708 178.036C51.1747 178.184 51.1303 178.329 51.0444 178.449C50.9585 178.57 50.8357 178.659 50.6946 178.703C42.2704 179.619 34.5058 183.695 28.9651 190.112C28.9021 190.19 28.8239 190.255 28.7351 190.303C28.6464 190.35 28.549 190.379 28.4488 190.388C28.2637 190.403 28.0785 190.357 27.9218 190.257Z" fill="#968B89"/>
<path d="M103.598 200.247C100.721 176.02 76.0803 158.984 48.6641 162.249C37.1198 163.55 26.3005 168.535 17.8064 176.467C17.3693 176.859 16.8068 177.084 16.2196 177.099C15.6324 177.115 15.0588 176.92 14.6016 176.551L14.3464 176.309C14.1833 176.126 14.0587 175.911 13.9799 175.679C13.9011 175.446 13.8697 175.2 13.8877 174.956C13.9056 174.711 13.9725 174.472 14.0844 174.254C14.1963 174.035 14.3509 173.841 14.539 173.684C23.7945 165.04 35.5842 159.607 48.1642 158.188C78.0465 154.622 104.926 173.197 108.072 199.618C108.059 200.17 107.848 200.698 107.477 201.107C107.107 201.515 106.601 201.776 106.054 201.841C105.507 201.907 104.954 201.772 104.498 201.463C104.042 201.153 103.712 200.689 103.57 200.156L103.598 200.247Z" fill="#C42626"/>
<path d="M156.882 166.703L166.532 174.742C166.77 175.803 166.578 176.915 165.998 177.835C165.045 179.393 161.918 179.462 161.918 179.462L151.891 173.53L156.882 166.703Z" fill="#FFCCB3"/>
<path d="M166.127 174.399C167.458 172.267 171.923 177.259 171.923 177.259L157.433 192.682C156.697 192.52 156.004 192.199 155.406 191.74C154.509 190.99 156.645 189.087 158.244 184.721C159.8 178.221 157.734 177.778 159.8 178.221C159.8 178.208 159.87 180.368 166.127 174.399Z" fill="#A5A5A5"/>
<path d="M176.671 103.15C176.671 103.15 186.006 109.664 184.908 114.161C183.809 118.657 136.693 142.291 136.126 145.097C135.558 147.902 158.959 167.081 158.959 167.081L151.642 176.026C151.642 176.026 111.511 155.324 108.913 144.178C106.315 133.031 148.685 107.138 148.685 107.138L157.57 106.498L176.671 103.15Z" fill="#262626"/>
<path d="M155.775 171.017L158.997 167.132C158.997 167.132 135.557 147.942 136.164 145.148C136.771 142.355 183.899 118.694 184.958 114.186C186.017 109.677 176.735 103.188 176.735 103.188L157.66 106.561L153.051 107.993C143.273 117.422 117.72 137.211 117.914 144.556C118.058 152.518 143.502 165.262 155.775 171.017Z" fill="#161616"/>
<path d="M156.344 194.021C153.55 170.512 172.854 149.04 199.277 145.827C225.7 142.615 249.514 159.122 252.292 182.514C255.069 205.905 235.846 227.479 209.369 230.615C182.892 233.751 159.119 217.333 156.344 194.021ZM199.929 151.182C176.767 153.955 159.921 172.833 162.359 193.286C164.797 213.738 185.61 228.124 208.759 225.364C231.908 222.605 248.767 203.713 246.342 183.26C243.918 162.808 223.078 148.422 199.929 151.182Z" fill="black"/>
<path d="M167.109 192.675C164.941 174.522 179.893 157.764 200.432 155.322C220.972 152.88 239.438 165.638 241.593 183.792C243.748 201.946 228.809 218.69 208.27 221.145C187.731 223.6 169.264 210.816 167.109 192.675ZM200.585 156.641C180.868 158.995 166.527 175.083 168.61 192.492C170.692 209.901 188.4 222.168 208.104 219.814C227.808 217.459 242.162 201.372 240.092 183.962C238.022 166.553 220.304 154.352 200.585 156.641Z" fill="#968B89"/>
<path d="M193.917 216.022L193.851 216.023C193.772 215.998 193.699 215.956 193.635 215.902C193.572 215.848 193.52 215.781 193.483 215.707C193.446 215.632 193.424 215.551 193.418 215.467C193.413 215.384 193.424 215.301 193.451 215.222C193.526 215.042 193.666 214.897 193.843 214.815C194.02 214.732 194.221 214.719 194.408 214.777C198.708 215.942 203.191 216.268 207.615 215.739C224.748 213.688 237.22 199.72 235.407 184.584C234.886 180.167 233.189 175.972 230.492 172.438L230.49 172.372C230.45 172.299 230.426 172.218 230.417 172.134C230.409 172.051 230.418 171.967 230.442 171.887C230.467 171.807 230.508 171.733 230.561 171.669C230.615 171.605 230.681 171.552 230.756 171.514C230.919 171.412 231.113 171.372 231.303 171.401C231.493 171.429 231.667 171.525 231.794 171.67C234.623 175.372 236.404 179.77 236.947 184.399C238.845 200.267 225.775 214.919 207.82 217.057C203.162 217.613 198.441 217.262 193.917 216.022Z" fill="#968B89"/>
<path d="M178.353 172.32L178.259 172.257C178.2 172.201 178.152 172.134 178.118 172.06C178.085 171.986 178.066 171.905 178.064 171.823C178.062 171.742 178.076 171.661 178.106 171.584C178.135 171.508 178.179 171.439 178.236 171.38C184.035 164.684 192.146 160.427 200.947 159.461L201.13 159.456C201.273 159.493 201.401 159.576 201.493 159.691C201.585 159.807 201.637 159.95 201.641 160.098C201.645 160.246 201.6 160.391 201.514 160.511C201.428 160.632 201.306 160.721 201.165 160.765C192.775 161.699 185.047 165.768 179.526 172.158C179.398 172.306 179.22 172.402 179.025 172.429C178.831 172.456 178.634 172.412 178.47 172.304L178.353 172.32Z" fill="#968B89"/>
<path d="M165.06 158.666C164.963 158.595 164.876 158.508 164.805 158.411C164.639 158.229 164.512 158.016 164.431 157.783C164.35 157.551 164.317 157.305 164.334 157.06C164.351 156.814 164.417 156.575 164.529 156.356C164.641 156.137 164.796 155.943 164.984 155.786C173.58 147.906 184.273 142.686 195.769 140.757C207.266 138.829 219.074 140.274 229.768 144.918L230.047 145.041C230.265 145.164 230.457 145.33 230.61 145.529C230.763 145.727 230.875 145.955 230.939 146.198C231.003 146.44 231.017 146.693 230.982 146.942C230.946 147.19 230.86 147.429 230.73 147.644C230.413 148.134 229.932 148.496 229.373 148.665C228.814 148.833 228.214 148.797 227.679 148.563C217.858 144.327 207.022 143.024 196.479 144.811C185.935 146.598 176.133 151.398 168.253 158.634C167.869 158.995 167.38 159.224 166.857 159.287C166.531 159.312 166.203 159.27 165.894 159.163C165.585 159.057 165.301 158.887 165.06 158.666Z" fill="#C42626"/>
<path d="M203.789 183.86L137.401 189.032C137.247 189.05 137.092 189.008 136.97 188.913C136.847 188.818 136.767 188.678 136.746 188.525C136.746 188.367 136.807 188.216 136.916 188.103C137.026 187.99 137.175 187.924 137.333 187.92L203.733 182.747C203.879 182.744 204.02 182.798 204.126 182.898C204.232 182.999 204.293 183.137 204.297 183.283C204.301 183.429 204.247 183.57 204.146 183.676C204.046 183.782 203.908 183.843 203.762 183.847L203.789 183.86Z" fill="#968B89"/>
<path d="M137.599 203.961C137.59 203.884 137.596 203.806 137.617 203.731C137.638 203.656 137.674 203.586 137.722 203.525C137.77 203.464 137.83 203.414 137.898 203.376C137.966 203.338 138.041 203.314 138.118 203.306L204.818 192.623C204.97 192.591 205.128 192.62 205.259 192.702C205.39 192.783 205.485 192.913 205.524 193.063C205.531 193.138 205.523 193.215 205.501 193.287C205.479 193.36 205.443 193.427 205.394 193.486C205.346 193.544 205.287 193.593 205.22 193.628C205.153 193.664 205.079 193.685 205.004 193.692L138.317 204.388C138.242 204.407 138.164 204.412 138.087 204.401C138.01 204.39 137.936 204.364 137.869 204.324C137.803 204.284 137.744 204.232 137.698 204.17C137.651 204.108 137.618 204.037 137.599 203.961Z" fill="#968B89"/>
<path d="M197.523 189.003C197.134 185.673 199.868 182.613 203.626 182.16C207.384 181.707 210.771 184.042 211.173 187.372C211.575 190.702 208.828 193.762 205.057 194.215C201.286 194.669 197.887 192.374 197.523 189.003Z" fill="black"/>
<path d="M144.194 185.498C135.044 183.466 126.878 178.326 121.086 170.95L108.352 154.189C104.212 148.87 98.6621 144.822 92.3353 142.506L85.0761 139.75L84.8513 139.664C84.6656 139.574 84.4997 139.447 84.3632 139.292C84.2267 139.137 84.1224 138.957 84.0563 138.761C83.9903 138.565 83.9637 138.358 83.9783 138.152C83.9929 137.946 84.0483 137.745 84.1412 137.56C84.3854 137.139 84.771 136.818 85.2293 136.655C85.6876 136.492 86.189 136.497 86.6441 136.669L93.9033 139.425C100.84 141.966 106.922 146.409 111.455 152.246L124.189 169.008C129.471 175.728 136.918 180.407 145.261 182.247L145.47 182.241C145.672 182.304 145.859 182.406 146.022 182.541C146.185 182.676 146.319 182.842 146.418 183.029C146.516 183.217 146.577 183.421 146.596 183.632C146.616 183.843 146.594 184.055 146.531 184.257C146.405 184.591 146.188 184.883 145.904 185.099C145.621 185.315 145.282 185.447 144.927 185.479C144.686 185.529 144.438 185.536 144.194 185.498Z" fill="#C42626"/>
<path d="M139.726 194.8L139.502 194.714C139.314 194.63 139.145 194.509 139.004 194.358C138.863 194.208 138.753 194.031 138.681 193.838C138.609 193.645 138.576 193.44 138.584 193.234C138.592 193.028 138.64 192.825 138.727 192.638L172.305 122.315C172.536 121.89 172.912 121.563 173.364 121.392C173.816 121.221 174.314 121.219 174.768 121.385L175.005 121.458C175.381 121.636 175.672 121.955 175.814 122.346C175.957 122.737 175.94 123.168 175.767 123.547L142.189 193.87C142.04 194.157 141.822 194.402 141.555 194.583C141.288 194.764 140.98 194.875 140.659 194.906C140.344 194.945 140.024 194.908 139.726 194.8Z" fill="#C42626"/>
<path d="M116.542 180.254L103.81 163.558C99.6733 158.236 94.1226 154.187 87.7934 151.875L80.5215 149.133L80.2967 149.047C80.111 148.957 79.9451 148.83 79.8086 148.675C79.6722 148.52 79.5679 148.34 79.5018 148.144C79.4357 147.948 79.4092 147.741 79.4238 147.535C79.4383 147.329 79.4937 147.128 79.5867 146.943C79.8246 146.519 80.2076 146.196 80.6651 146.032C81.1226 145.868 81.6238 145.875 82.0764 146.052L89.3484 148.795C96.2819 151.362 102.361 155.816 106.901 161.656L119.634 178.351C127.513 188.716 141.229 194.092 155.426 192.394L204.112 186.589C204.346 186.524 204.592 186.511 204.831 186.55C205.071 186.588 205.3 186.679 205.502 186.814C205.703 186.949 205.874 187.126 206.001 187.334C206.128 187.541 206.209 187.773 206.238 188.014C206.267 188.256 206.244 188.5 206.17 188.732C206.096 188.964 205.973 189.176 205.81 189.356C205.646 189.536 205.445 189.678 205.222 189.773C204.998 189.868 204.757 189.913 204.514 189.906L155.815 195.712C140.273 197.563 125.194 191.633 116.542 180.254Z" fill="#C42626"/>
<path d="M203.127 189.052L163.844 142.466L163.721 142.285C163.572 141.996 163.535 141.662 163.619 141.347C163.703 141.032 163.901 140.76 164.174 140.583C164.493 140.362 164.882 140.264 165.268 140.306C165.654 140.349 166.011 140.53 166.274 140.816L205.466 187.405C205.518 187.456 205.56 187.517 205.588 187.585C205.672 187.726 205.727 187.882 205.749 188.045C205.772 188.207 205.762 188.373 205.72 188.531C205.678 188.69 205.604 188.839 205.504 188.968C205.404 189.098 205.278 189.206 205.136 189.287C204.92 189.435 204.67 189.527 204.41 189.555C204.172 189.575 203.932 189.541 203.709 189.453C203.487 189.366 203.288 189.229 203.127 189.052Z" fill="#C42626"/>
<path d="M128.38 197.301C127.807 192.481 131.774 188.04 137.216 187.385C142.657 186.731 147.564 190.126 148.149 194.958C148.735 199.79 144.755 204.218 139.248 204.861C133.741 205.505 128.952 202.107 128.38 197.301Z" fill="black"/>
<path d="M203.75 183.31C202.815 183.541 201.967 184.038 201.307 184.74C200.647 185.442 200.204 186.319 200.031 187.267C199.857 188.215 199.961 189.193 200.33 190.084C200.699 190.974 201.317 191.739 202.11 192.286C202.902 192.833 203.836 193.14 204.799 193.168C205.761 193.197 206.712 192.947 207.535 192.448C208.359 191.949 209.022 191.223 209.443 190.356C209.864 189.49 210.026 188.52 209.91 187.563C209.651 186.184 208.859 184.964 207.705 184.167C206.551 183.371 205.13 183.063 203.75 183.31Z" fill="#A5A5A5"/>
<path d="M139.126 203.779C143.898 203.211 147.36 199.332 146.858 195.116C146.356 190.9 142.081 187.943 137.309 188.512C132.537 189.08 129.075 192.959 129.577 197.175C130.078 201.391 134.354 204.348 139.126 203.779Z" fill="#A5A5A5"/>
<path d="M133.888 221.982L117.142 221.809C116.786 221.795 116.449 221.646 116.199 221.392C115.949 221.138 115.805 220.798 115.796 220.442C115.832 220.056 116.017 219.7 116.31 219.448C116.604 219.195 116.984 219.067 117.371 219.091L134.131 219.277C134.31 219.272 134.487 219.304 134.653 219.37C134.819 219.436 134.97 219.536 135.096 219.663C135.222 219.789 135.321 219.941 135.386 220.107C135.451 220.273 135.482 220.451 135.476 220.63C135.451 220.98 135.3 221.309 135.051 221.556C134.803 221.804 134.474 221.953 134.124 221.976L133.888 221.982Z" fill="black"/>
<path d="M125.238 221.162C125.238 221.162 125.172 221.164 125.133 221.165C124.99 221.084 124.884 220.951 124.836 220.794C124.788 220.637 124.802 220.467 124.875 220.32L137.665 196.544C137.763 196.378 137.918 196.252 138.101 196.189C138.285 196.127 138.484 196.132 138.664 196.203L138.755 196.201C138.901 196.28 139.009 196.412 139.058 196.57C139.106 196.729 139.09 196.899 139.013 197.046L126.263 220.834C126.2 220.941 126.112 221.032 126.007 221.098C125.902 221.165 125.782 221.205 125.658 221.217C125.516 221.238 125.37 221.219 125.238 221.162Z" fill="black"/>
<path d="M189.958 120.998C190.117 121.263 190.203 121.566 190.208 121.875C190.213 122.184 190.136 122.49 189.985 122.76C189.834 123.03 189.614 123.255 189.348 123.413C189.082 123.57 188.779 123.655 188.47 123.657L170.019 125.861C169.532 125.945 169.032 125.835 168.625 125.555C168.219 125.274 167.939 124.844 167.845 124.359L167.607 122.282C167.592 122.037 167.626 121.792 167.706 121.559C167.786 121.327 167.911 121.114 168.074 120.93C168.237 120.747 168.435 120.598 168.656 120.491C168.877 120.385 169.117 120.323 169.362 120.31L183.978 118.614C185.096 118.449 186.238 118.582 187.288 119.001C188.338 119.419 189.259 120.108 189.958 120.998Z" fill="#802500"/>
<path d="M139.727 194.813L140.271 215.407C139.041 215.892 137.758 216.229 136.449 216.412C134.479 216.648 132.692 214.415 132.692 214.415L130.859 199.017L139.727 194.813Z" fill="#FFCCB3"/>
<path d="M139.631 214.442C142.345 214.108 140.192 220.348 140.192 220.348L117.984 219.074C117.718 218.43 117.636 217.725 117.747 217.037C117.928 215.945 120.896 216.325 125.793 214.899C132.631 212.098 131.904 210.361 132.631 212.098C132.632 212.124 130.703 213.459 139.631 214.442Z" fill="#A5A5A5"/>
<path d="M181.978 99.3815C181.978 99.3815 188.618 105.966 187.164 112.87C185.71 119.773 142.262 147.477 139.642 151.371C137.022 155.266 143.116 204.602 143.116 204.602C134.879 206.483 130.578 205.208 130.578 205.208C130.578 205.208 118.596 168.33 120.731 150.036C122.866 131.743 157.534 109.119 157.534 109.119L181.978 99.3815Z" fill="#2D2D2D"/>
<path d="M169.197 97.2294C168.763 96.1665 168.444 95.4675 168.444 95.4675C168.403 95.3279 168.418 95.1781 168.486 95.0494C168.553 94.9206 168.667 94.8229 168.805 94.7767C168.951 94.7145 169.114 94.7073 169.264 94.7563C169.415 94.8053 169.543 94.9073 169.624 95.0433C169.624 95.0433 169.957 95.7682 170.405 96.87C170.441 97.0113 170.42 97.161 170.348 97.2875C170.276 97.414 170.157 97.5076 170.017 97.5484L169.86 97.5526C169.73 97.5777 169.594 97.5597 169.475 97.5015C169.355 97.4432 169.258 97.3478 169.197 97.2294Z" fill="#F7604B"/>
<path d="M157.824 59.1428C165.243 69.4281 186.45 105.185 187.287 107.626C194.645 128.997 143.097 122.104 144.785 107.189C145.273 102.879 130.79 88.7711 125.803 82.339C122.684 78.242 125.358 65.4762 126.503 59.2884C127.649 53.1005 133.706 49.4819 133.706 49.4819C133.706 49.4819 150.392 48.8318 157.824 59.1428Z" fill="#A7B7C9"/>
<path opacity="0.6" d="M139.34 104.214C141.035 106.934 139.901 115.047 141.164 115.276C142.426 115.505 146.54 109.199 147.86 109.086C153.363 108.797 158.232 105.314 159.415 100.527L159.412 100.435C163.335 84.8854 153.369 61.4351 151.943 58.9573C149.542 54.8021 141.212 55.6115 139.141 57.9851C139.141 57.9851 134.23 62.3857 136.366 71.8671C138.501 81.3485 143.886 98.3822 141.467 102.481C140.894 103.208 140.168 103.8 139.34 104.214Z" fill="url(#paint1_radial_0_4569)"/>
<path d="M127.128 40.7597L133.694 49.4822C133.694 49.4822 125.99 61.6078 126.519 58.8425C126.845 57.0478 126.727 55.2006 126.177 53.4615C125.627 51.7225 124.661 50.1442 123.362 48.864C122.085 47.5876 120.987 46.6602 120.987 46.6602L127.128 40.7597Z" fill="#FFCCB3"/>
<path opacity="0.9" d="M123.414 48.8234C124.411 50.2237 125.324 51.6827 126.147 53.1926C128.144 50.9781 130.972 49.03 131.752 46.8477L127.128 40.7597L120.986 46.6209C120.986 46.6209 122.07 47.5225 123.414 48.8234Z" fill="url(#paint2_radial_0_4569)"/>
<path d="M141.336 26.1829C145.447 28.6946 158.385 35.3099 164.878 28.8761C171.371 22.4422 185.943 22.5292 196.182 27.6043C206.422 32.6793 223.871 26.2576 224.471 13.7562C225.07 1.25479 215.276 12.5447 209.16 7.49178C203.045 2.43888 189.322 -0.186006 182.431 6.02253C175.539 12.2311 166.021 10.2027 157.681 6.67585C149.342 3.14901 138.63 3.49729 136.667 11.4623C135.576 15.4316 134.92 19.5081 134.71 23.6196C134.71 23.6196 137.212 23.6584 141.336 26.1829Z" fill="#1B1B1C"/>
<path d="M53.1384 207.737L52.914 207.665C52.5384 207.486 52.2473 207.168 52.1026 206.778C51.9578 206.388 51.9709 205.956 52.1389 205.576L92.9695 118.396C93.1174 118.089 93.1763 117.747 93.1398 117.409L92.5044 112.185C92.4148 111.209 92.6004 110.228 93.04 109.353C93.4797 108.477 94.1559 107.743 94.9917 107.233C95.8735 106.654 96.8798 106.293 97.928 106.179C98.9761 106.065 100.036 106.201 101.022 106.576L110.374 110.259L110.612 110.358C110.979 110.545 111.258 110.87 111.386 111.262C111.514 111.654 111.481 112.081 111.296 112.449C111.053 112.878 110.662 113.204 110.197 113.366C109.731 113.527 109.223 113.514 108.766 113.328L99.4165 109.723C99.0532 109.577 98.6595 109.522 98.2702 109.564C97.8808 109.607 97.5079 109.744 97.1845 109.965C96.8717 110.151 96.6179 110.422 96.4527 110.747C96.2875 111.071 96.2176 111.435 96.2511 111.798L96.8733 117.022C96.9891 117.921 96.8452 118.834 96.4585 119.653L55.5876 206.795C55.4385 207.085 55.2192 207.333 54.9496 207.516C54.68 207.7 54.3688 207.812 54.0444 207.844C53.7382 207.874 53.4292 207.838 53.1384 207.737Z" fill="#C42626"/>
<path d="M53.3076 201.248C52.3739 201.481 51.5274 201.979 50.8696 202.682C50.2119 203.385 49.7708 204.263 49.5994 205.21C49.428 206.158 49.5336 207.135 49.9034 208.024C50.2732 208.913 50.8916 209.677 51.6843 210.223C52.477 210.769 53.4103 211.074 54.3722 211.103C55.334 211.131 56.2836 210.881 57.1068 210.382C57.93 209.883 58.5918 209.157 59.0129 208.291C59.434 207.425 59.5964 206.456 59.4805 205.5C59.2251 204.117 58.4313 202.892 57.2737 202.095C56.1161 201.297 54.6895 200.993 53.3076 201.248Z" fill="#A5A5A5"/>
<path d="M102.122 112.049C103.988 112.704 105.937 113.094 107.912 113.206C108.851 113.09 109.558 111.106 110.471 110.99C111.385 110.874 154.334 111.902 159.276 92.3295C158.301 85.1233 153.268 58.6212 151.776 56.1451C149.375 51.9768 141.764 52.2301 139.691 54.5513C139.691 54.5513 136.527 56.1939 138.676 65.688C140.825 75.1822 146.544 88.5255 144.126 92.6246C141.708 96.7236 113.457 107.06 111.879 106.787C108.973 106.3 102.495 104.86 100.397 107.208C98.2991 109.556 101.602 111.683 102.122 112.049Z" fill="#FFCCB3"/>
<path d="M116.539 111.223C128.638 111.389 155.475 107.51 159.304 92.3682C159.039 82.3526 153.296 58.6599 151.804 56.1838C149.403 52.0154 141.791 52.2687 139.718 54.59C139.718 54.59 136.555 56.2326 138.703 65.7267C140.852 75.2209 145.949 87.8077 143.519 91.9464C141.627 95.1406 124.178 103.095 116.733 104.72C114.704 105.193 113.004 111.199 116.539 111.223Z" fill="#A7B7C9"/>
<path d="M120 25.7373C124.904 27.0097 131 38.784 128.488 42.7808C125.975 46.7775 117.907 52.5585 114.341 52.3251C110.774 52.0918 108.017 44.3692 107.813 36.6187C107.608 28.8681 110.697 26.8737 110.697 26.8737C113.581 25.4539 116.86 25.0533 120 25.7373Z" fill="#FFCCB3"/>
<path d="M125.252 19.2838C121.144 20.8596 119.006 17.6932 113.925 20.0938C112.534 20.6626 111.39 21.7056 110.694 23.0381C109.999 24.3705 109.797 25.9064 110.124 27.3737C110.124 27.3737 116.215 28.0252 117.017 30.6112C120.461 41.5778 129.186 45.3303 131.058 44.3245C132.929 43.3187 139.479 33.0708 138.887 28.0031C138.295 22.9355 135.724 18.7847 134.511 17.952C132.218 16.388 129.321 17.696 125.252 19.2838Z" fill="#1B1B1C"/>
<path d="M121.201 39.8813C121.201 39.8813 123.773 40.6519 124.918 38.8792C126.062 37.1065 123.145 33.6855 121.07 33.9368C118.995 34.188 119.932 37.4648 119.932 37.4648L121.201 39.8813Z" fill="#FFCCB3"/>
<path d="M135.018 50.5609C148.117 42.9439 152.269 50.4723 154.653 53.0165C157.037 55.5608 161.246 76.1629 161.246 76.1629C158.161 58.4527 149.387 49.9064 149.387 49.9064C139.023 47.5597 135.505 54.6094 135.505 54.6094C131.855 71.0562 140.651 86.8994 140.651 86.8994C125.774 63.3298 135.018 50.5478 135.018 50.5609Z" fill="#3C6D51"/>
<path d="M170.631 52.3853C174.583 53.3029 177.63 59.1574 179.807 65.7554C181.824 72.4545 183.395 79.2801 184.509 86.1873C184.989 87.9957 182.263 90.8582 176.424 95.2703C170.584 99.6824 163.53 95.2962 163.53 95.2962C161.954 90.6083 152.993 52.6675 152.993 52.6675C161.602 49.0208 161.202 50.2498 170.631 52.3853Z" fill="#306347"/>
<path opacity="0.7" d="M170.816 68.364C173.761 66.8582 177.941 65.0578 179.806 65.7685C182.212 66.6744 183.916 80.15 184.523 85.7676C184.597 86.5097 184.491 87.2588 184.213 87.9507C183.935 88.6426 183.493 89.2567 182.926 89.7402L180.916 91.4571C180.565 91.7576 180.17 92.0022 179.744 92.1824C179.189 92.4149 178.593 92.5357 177.992 92.5379C177.39 92.54 176.794 92.4234 176.237 92.1948C175.68 91.9661 175.174 91.6299 174.747 91.2053C174.32 90.7807 173.981 90.2761 173.749 89.7204C171.58 84.4688 169.818 79.0577 168.479 73.5352C168.229 72.5357 168.324 71.4811 168.748 70.5425C169.172 69.6038 169.901 68.8361 170.816 68.364Z" fill="#160005"/>
<path d="M170.633 52.4112C151.094 43.6774 172.843 96.976 172.843 96.976" stroke="#160005" stroke-width="0.28" stroke-miterlimit="10"/>
<defs>
<radialGradient id="paint0_radial_0_4569" cx="0" cy="0" r="1" gradientUnits="userSpaceOnUse" gradientTransform="translate(138.573 70.7478) rotate(-1.5121) scale(20.4396 20.4571)">
<stop stop-color="#516782"/>
<stop offset="0.34" stop-color="#526883" stop-opacity="0.98"/>
<stop offset="0.5" stop-color="#576D87" stop-opacity="0.92"/>
<stop offset="0.63" stop-color="#60758E" stop-opacity="0.82"/>
<stop offset="0.74" stop-color="#6C8099" stop-opacity="0.68"/>
<stop offset="0.83" stop-color="#7C8FA6" stop-opacity="0.5"/>
<stop offset="0.92" stop-color="#8FA1B6" stop-opacity="0.27"/>
<stop offset="1" stop-color="#A7B7C9" stop-opacity="0"/>
</radialGradient>
<radialGradient id="paint1_radial_0_4569" cx="0" cy="0" r="1" gradientUnits="userSpaceOnUse" gradientTransform="translate(-5317.03 12418.6) rotate(76.9629) scale(519.148 471.3)">
<stop stop-color="#516782"/>
<stop offset="0.34" stop-color="#526883" stop-opacity="0.98"/>
<stop offset="0.5" stop-color="#576D87" stop-opacity="0.92"/>
<stop offset="0.63" stop-color="#60758E" stop-opacity="0.82"/>
<stop offset="0.74" stop-color="#6C8099" stop-opacity="0.68"/>
<stop offset="0.83" stop-color="#7C8FA6" stop-opacity="0.5"/>
<stop offset="0.92" stop-color="#8FA1B6" stop-opacity="0.27"/>
<stop offset="1" stop-color="#A7B7C9" stop-opacity="0"/>
</radialGradient>
<radialGradient id="paint2_radial_0_4569" cx="0" cy="0" r="1" gradientUnits="userSpaceOnUse" gradientTransform="translate(124.912 44.0935) rotate(-1.5121) scale(7.21016 7.21632)">
<stop stop-color="#734C37"/>
<stop offset="0.02" stop-color="#7C543F"/>
<stop offset="0.1" stop-color="#9F745E"/>
<stop offset="0.19" stop-color="#BD8F78"/>
<stop offset="0.28" stop-color="#D5A68E"/>
<stop offset="0.39" stop-color="#E8B79F"/>
<stop offset="0.51" stop-color="#F5C3AA"/>
<stop offset="0.68" stop-color="#FDCAB1"/>
<stop offset="1" stop-color="#FFCCB3"/>
</radialGradient>
</defs>
</svg>
